<?xml version="1.0" encoding="utf-8"?>
<svg xmlns="http://www.w3.org/2000/svg" viewBox="0 0 280 289.33"><defs><style>.cls-1{isolation:isolate;}.cls-2{fill:#e3e9ff;}.cls-3{fill:#c6ceec;}.cls-4{fill:#bac4e6;}.cls-5{fill:#d1d8f1;}.cls-6{fill:#dce2f7;}.cls-7{fill:#afbae0;}.cls-8{fill:#e8dbcc;}.cls-9{opacity:0.1;mix-blend-mode:darken;}.cls-10{fill:#402532;}.cls-11{fill:#333;}.cls-12{fill:#323e73;}.cls-13{fill:#36427b;}.cls-14{fill:#4d4d4d;}.cls-15{fill:#d04839;}.cls-16{fill:#d1b591;}.cls-17{fill:#dcc19f;}.cls-18{fill:#ffb76e;}.cls-19{fill:#d85041;}.cls-20{fill:#e66152;}.cls-21{fill:#ffc891;}.cls-22{fill:#9edfe0;}.cls-23{fill:#a9b5e0;}.cls-24{fill:#95a1cc;}.cls-25{fill:#f3a14e;}.cls-26{fill:#e39649;}.cls-27{fill:#c46b3f;}.cls-28{fill:#4d3434;}.cls-29{fill:#394784;}.cls-30{fill:#3d4c8c;}</style></defs><title>inbrief_feb20_coronavirus</title><g class="cls-1"><g id="Layer_1" data-name="Layer 1"><path class="cls-2" d="M29.56,260.67S-.8,197.23,23.92,154.56c23.15-40,10.16-91,62.64-106,45.42-13,57.34-57.39,106.12-47,54.79,11.72,41.88,120.15,56,142.16,24.36,37.91.06,116.94.06,116.94Z"/><path class="cls-3" d="M25.07,43.72c1.91-.17,4.26-3.12,4.26-3.12S27,38.06,25.11,38.23a3.17,3.17,0,0,0-3.14,3C22,42.76,23.17,43.88,25.07,43.72Z"/><path class="cls-3" d="M35.68,33.18c.24,2.78,2.94,5.6,2.94,5.6s2.1-4,1.86-6.77S39,27.72,37.69,28,35.44,30.39,35.68,33.18Z"/><path class="cls-3" d="M47.67,37.26c-.88,4,1.38,9.85,1.38,9.85s4.43-4,5.32-8,0-7-1.9-7.51S48.56,33.26,47.67,37.26Z"/><path class="cls-3" d="M59.84,44.79C57.16,48.72,57,57.06,57,57.06s6.4-1.26,9.08-5.18,3-8,1.25-10S62.51,40.86,59.84,44.79Z"/><path class="cls-3" d="M69.83,60.47c-3.37,1.31-6.64,7.69-6.64,7.69s5,3.15,8.33,1.83,5.14-4.29,4.67-6.92S73.2,59.15,69.83,60.47Z"/><path class="cls-3" d="M73.86,78.21c-2.51-.51-6.14,2.08-6.14,2.08s2.51,3.82,5,4.33,4.36-.6,4.67-2.37S76.37,78.72,73.86,78.21Z"/><path class="cls-3" d="M31.76,52.44c2.27-.65,4.68-4.68,4.68-4.68S33.3,45.33,31,46a4.21,4.21,0,0,0-3.35,4.29C27.88,52.06,29.49,53.09,31.76,52.44Z"/><path class="cls-3" d="M40,62.66c2.74-2,4.61-8.23,4.61-8.23s-4.82-1.36-7.56.64-3.83,5-3,7.06S37.21,64.65,40,62.66Z"/><path class="cls-3" d="M50.7,76.58C53.1,73.26,53.4,66,53.4,66s-5.57.86-8,4.18-2.74,6.87-1.29,8.63S48.3,79.9,50.7,76.58Z"/><path class="cls-3" d="M59.4,85.78c.85-2.55-.23-6.67-.23-6.67s-3.14,2.1-4,4.65-.44,4.63.73,5.19S58.55,88.33,59.4,85.78Z"/><path class="cls-3" d="M73,153.92l.72-.12A275.73,275.73,0,0,0,73.24,124c-1.1-15.53-4.06-37.46-11.92-53.68S45.9,46.69,41,43.32c-5.4-3.68-9.06-2.55-9.06-2.55s3.5-.17,8.75,3.43C45.5,47.53,52.93,54.87,60.7,70.89s10.73,37.86,11.82,53.29A275,275,0,0,1,73,153.92Z"/><path class="cls-3" d="M193.58,261s-7.83-29.24-26.86-51.36c-24.15-28.07-17.09-52.22,4.29-50.84,23.78,1.54,27,7.49,31.65-8.83S206.13,62.15,255.4,62s12.76,94.87-8.11,127.51-7,35.37,4.06,32.65,21.44,8.6,16.81,20.87A37.54,37.54,0,0,1,254,261Z"/><path class="cls-4" d="M218,182c-2.44-8.78-10.64-17.88-18.13-24.72a8,8,0,0,1-.51.81c7.73,7.1,16.14,16.57,18,25.5-5,12-8.39,23.29-8.39,33.27A199,199,0,0,0,214,261H215a198.15,198.15,0,0,1-5-44.16,68.57,68.57,0,0,1,3.63-20.29c1.63-1.17,21.26-15,41.56-20.93l.56-1.09c-18.62,5.26-36.81,17.23-41.64,20.55,4.35-13.18,11.61-27.63,19.14-42.61.31-.61.61-1.22.92-1.82a150.58,150.58,0,0,0,34.34-5.59c.13-.34.25-.69.38-1a149.79,149.79,0,0,1-34.27,5.71c1.32-2.61,2.63-5.24,3.93-7.87,2.63-.31,20.39-2.49,33.41-6.81.12-.36.23-.72.34-1.08-12.17,4.14-29.24,6.44-33.28,6.94,7.08-14.37,13.68-28.88,17.35-42.67,2.4-.09,15-1,23.58-8.79,0-.42-.05-.84-.08-1.25-8,7.93-20.36,9-23.27,9.15.18-.71.37-1.41.53-2.11,3.56-15.07,4.51-25.5,4.28-32.69l-1-.17c.25,7.09-.66,17.5-4.25,32.68a141.42,141.42,0,0,1-5.72,18c-3.51-1-25.5-8-34.75-22-.16.36-.31.72-.46,1.08,9.66,13.91,31.35,20.76,34.88,21.8-4.92,12.6-11.41,25.53-17.76,38.17C227.12,162.41,222.08,172.44,218,182Z"/><path class="cls-4" d="M223.6,261c1.51-7.09,6.4-26.83,15.88-39.5a6.26,6.26,0,0,1-.76-.6C229,233.83,224.05,254,222.55,261Z"/><path class="cls-4" d="M264.44,225.77q-.37-.35-.75-.66a76,76,0,0,0-11.79,8.12A69.49,69.49,0,0,0,241.41,244a34.89,34.89,0,0,1,2.51-21.09c-.35,0-.7-.08-1-.14a35.67,35.67,0,0,0-2.29,22.3A64.93,64.93,0,0,0,231.84,261h1.07a65.54,65.54,0,0,1,17.23-25,48.12,48.12,0,0,0,10.15,1.14,29.13,29.13,0,0,0,8.95-1.27c0-.31-.06-.63-.1-.94-6.85,2.32-15.5.88-18.19.33l1.67-1.43A74,74,0,0,1,264.44,225.77Z"/><path class="cls-4" d="M157.69,162.43a55.65,55.65,0,0,1,22.85,16.34,69,69,0,0,1,8.69,14.46c-4.35-1-22.12-5-35.44-4.7.1.29.2.58.31.87,14.17-.3,33.35,4.31,35.61,4.86,4.55,10.07,8.09,21.89,10.9,33.05a55.58,55.58,0,0,0-22.79-2.19c.17.28.33.56.5.83a53.21,53.21,0,0,1,22.55,2.4c.47,1.89.92,3.74,1.35,5.57a48.61,48.61,0,0,0-20.71-2.3c.15.28.3.55.44.83a47.55,47.55,0,0,1,20.51,2.5c1.29,5.59,2.41,10.84,3.37,15.41.92,4.32,1.68,7.92,2.35,10.65h1.06c-.68-2.74-1.46-6.39-2.39-10.81-4.37-20.59-11.67-55.06-25.46-71.93a56.47,56.47,0,0,0-22.85-16.46C158.25,162,158,162.21,157.69,162.43Z"/><path class="cls-5" d="M186.25,261s.9-23-22.71-39.72-38.91-36.14-26.44-40.49,26.5,6.29,30.11.46c5.71-9.21-40.21-50.34-15.41-68.93s55.89,46.45,50.15,69.19c-7.7,30.47-6.54,49.37-1.12,49.37s8-5.83,12.34.71S194.31,261,194.31,261Z"/><path class="cls-6" d="M192.14,261c1.23-7.27,2.5-21.42-2.37-36a82.38,82.38,0,0,1-3.46-16.69,39.69,39.69,0,0,1,12.39-11.93c0-.24.08-.47.13-.71a41.31,41.31,0,0,0-12.63,11.68c-.67-6.29-.91-12.74-1.14-19.07-.17-4.45-.33-8.79-.63-13,.58,0,1.75.1,3.31.1a49.5,49.5,0,0,0,9-.78c1.73-.33,3.78-.79,5.85-1.28l0-.52c-2.11.51-4.21,1-6,1.31a52.39,52.39,0,0,1-12.21.66c-.1-1.37-.21-2.72-.35-4.05,1.64-.1,8.64-.62,13.91-3.26,1.28-.64,2.52-1.33,3.7-2,0-.19-.08-.38-.11-.57-1.25.75-2.58,1.51-3.95,2.19-5.16,2.58-12.06,3.09-13.6,3.17a79.15,79.15,0,0,0-2.17-12.34c-1.42-5.3-4.67-11.39-8.65-17.45,1.2-.71,7.3-4.51,10-10.16.65-1.34,1.23-2.72,1.75-4.06l-.44-.63c-.57,1.49-1.21,3-1.93,4.52-2.6,5.39-8.34,9.06-9.71,9.88-7-10.61-16.25-21.09-21.81-27.09l-.46.39c7.14,7.72,20.23,22.72,27,35.89-.74.4-3.81,1.77-10.68,1.61-4.56-.11-11.33-2.12-16.38-3.86l.36.69c5,1.7,11.47,3.57,16,3.67l1.12,0c6,0,8.87-1.15,9.83-1.65a45.15,45.15,0,0,1,3.33,8.33c2.43,9.08,2.82,19.4,3.22,30.32.05,1.4.1,2.8.16,4.21-3.79-5.22-11.07-9.57-16.92-12.45a3,3,0,0,1-.13.54c6.09,3,13.66,7.62,17.1,13.1.46,10.8,1.28,21.71,4.53,31.43,4.85,14.53,3.56,28.65,2.34,35.85Z"/><path class="cls-6" d="M205,236.78a30.33,30.33,0,0,1,6.45-7.23,5.19,5.19,0,0,0-.46-.36,30,30,0,0,0-8.46,10.86c-.73,1.66-1.59,3.55-2.48,5.53a31.77,31.77,0,0,1-.23-14.93,3.3,3.3,0,0,1-.57-.4c-2.09,7.76.13,15.46.37,16.26-2.6,5.72-5.45,11.85-6.68,14.5h.7c1.8-3.85,6.61-14.23,9.53-20.8a24.23,24.23,0,0,1,1.46-2.83,26.93,26.93,0,0,1,8.39-.58c.06-.16.12-.33.17-.49A26.11,26.11,0,0,0,205,236.78Z"/><path class="cls-6" d="M189.88,261c1.27-4.18,2.73-12.1.34-22.63-4-17.7-13.79-32.82-29.05-44.95A56.46,56.46,0,0,0,135,181.85c-.19.14-.38.28-.55.43a55.6,55.6,0,0,1,26.24,11.5l.94.78c-3,0-13.91.52-22,5.49l.35.42c8.74-5.37,20.82-5.42,22.31-5.4a89.57,89.57,0,0,1,8.07,7.55c-2.19.82-12.74,4.91-18.26,9.77l.45.38c5.49-4.85,16.37-9.05,18.21-9.74a77.11,77.11,0,0,1,15.23,23.84c-2.43-.57-11.09-2.48-18-2.21.19.17.39.33.57.5,7.25-.15,16.28,2,17.7,2.3.25.62.49,1.25.72,1.88-2.37-.54-11-2.4-15.95-1.9l.47.46c5.2-.38,14.25,1.68,15.68,2a78.48,78.48,0,0,1,2.47,8.55c2.4,10.55.9,18.44-.36,22.54Z"/><path class="cls-5" d="M186.25,261s.9-23-22.71-39.72-38.91-36.14-26.44-40.49,26.5,6.29,30.11.46c5.71-9.21-40.21-50.34-15.41-68.93s55.89,46.45,50.15,69.19c-7.7,30.47-6.54,49.37-1.12,49.37s8-5.83,12.34.71S194.31,261,194.31,261Z"/><path class="cls-6" d="M192.14,261c1.23-7.27,2.5-21.42-2.37-36a82.38,82.38,0,0,1-3.46-16.69,39.69,39.69,0,0,1,12.39-11.93c0-.24.08-.47.13-.71a41.31,41.31,0,0,0-12.63,11.68c-.67-6.29-.91-12.74-1.14-19.07-.17-4.45-.33-8.79-.63-13,.58,0,1.75.1,3.31.1a49.5,49.5,0,0,0,9-.78c1.73-.33,3.78-.79,5.85-1.28l0-.52c-2.11.51-4.21,1-6,1.31a52.39,52.39,0,0,1-12.21.66c-.1-1.37-.21-2.72-.35-4.05,1.64-.1,8.64-.62,13.91-3.26,1.28-.64,2.52-1.33,3.7-2,0-.19-.08-.38-.11-.57-1.25.75-2.58,1.51-3.95,2.19-5.16,2.58-12.06,3.09-13.6,3.17a79.15,79.15,0,0,0-2.17-12.34c-1.42-5.3-4.67-11.39-8.65-17.45,1.2-.71,7.3-4.51,10-10.16.65-1.34,1.23-2.72,1.75-4.06l-.44-.63c-.57,1.49-1.21,3-1.93,4.52-2.6,5.39-8.34,9.06-9.71,9.88-7-10.61-16.25-21.09-21.81-27.09l-.46.39c7.14,7.72,20.23,22.72,27,35.89-.74.4-3.81,1.77-10.68,1.61-4.56-.11-11.33-2.12-16.38-3.86l.36.69c5,1.7,11.47,3.57,16,3.67l1.12,0c6,0,8.87-1.15,9.83-1.65a45.15,45.15,0,0,1,3.33,8.33c2.43,9.08,2.82,19.4,3.22,30.32.05,1.4.1,2.8.16,4.21-3.79-5.22-11.07-9.57-16.92-12.45a3,3,0,0,1-.13.54c6.09,3,13.66,7.62,17.1,13.1.46,10.8,1.28,21.71,4.53,31.43,4.85,14.53,3.56,28.65,2.34,35.85Z"/><path class="cls-6" d="M205,236.78a30.33,30.33,0,0,1,6.45-7.23,5.19,5.19,0,0,0-.46-.36,30,30,0,0,0-8.46,10.86c-.73,1.66-1.59,3.55-2.48,5.53a31.77,31.77,0,0,1-.23-14.93,3.3,3.3,0,0,1-.57-.4c-2.09,7.76.13,15.46.37,16.26-2.6,5.72-5.45,11.85-6.68,14.5h.7c1.8-3.85,6.61-14.23,9.53-20.8a24.23,24.23,0,0,1,1.46-2.83,26.93,26.93,0,0,1,8.39-.58c.06-.16.12-.33.17-.49A26.11,26.11,0,0,0,205,236.78Z"/><path class="cls-6" d="M189.88,261c1.27-4.18,2.73-12.1.34-22.63-4-17.7-13.79-32.82-29.05-44.95A56.46,56.46,0,0,0,135,181.85c-.19.14-.38.28-.55.43a55.6,55.6,0,0,1,26.24,11.5l.94.78c-3,0-13.91.52-22,5.49l.35.42c8.74-5.37,20.82-5.42,22.31-5.4a89.57,89.57,0,0,1,8.07,7.55c-2.19.82-12.74,4.91-18.26,9.77l.45.38c5.49-4.85,16.37-9.05,18.21-9.74a77.11,77.11,0,0,1,15.23,23.84c-2.43-.57-11.09-2.48-18-2.21.19.17.39.33.57.5,7.25-.15,16.28,2,17.7,2.3.25.62.49,1.25.72,1.88-2.37-.54-11-2.4-15.95-1.9l.47.46c5.2-.38,14.25,1.68,15.68,2a78.48,78.48,0,0,1,2.47,8.55c2.4,10.55.9,18.44-.36,22.54Z"/><path class="cls-7" d="M28.19,261.19s-32.82-28.55-16.5-49.14,37.25,9.74,42.86-6.59S0,114.94,64.32,101.06s30.64,52.61,40.4,63.1c11,11.8,45.66-19.58,31.63,30.42-11,39.23,6.29,20.24,12.75,32.65,8.08,15.51-7.48,34-7.48,34Z"/><path class="cls-4" d="M151.41,236.54c0-.31,0-.62,0-.93a29,29,0,0,1-15-.1A62.69,62.69,0,0,1,146,223.68a7.19,7.19,0,0,0-.81-.45c-6.19,5.92-11.08,13.62-14.82,21.22.21-4.21,1.37-14.48,7.41-23a8.91,8.91,0,0,1-.92-.27c-7.74,11.13-7.45,25-7.44,25.21h0a134.37,134.37,0,0,0-5.85,14.77h1a118.49,118.49,0,0,1,11.38-24.88,32.21,32.21,0,0,0,8.52,1.16A25.85,25.85,0,0,0,151.41,236.54Z"/><path class="cls-4" d="M111.31,224.77c2-.1,11-.86,22.11-6.8a6.5,6.5,0,0,1-.28-.88c-10.7,5.77-19.41,6.63-21.68,6.76.73-4.29,1.6-8.6,2.65-12.79,2-.23,11.66-1.53,19.73-6.28.08-.4.17-.81.26-1.24-7.64,4.74-17.15,6.24-19.74,6.57,3-11.71,7.47-22.49,14-29.63a72.76,72.76,0,0,0,9.13-12.68,6.09,6.09,0,0,0-.65-.69,72.24,72.24,0,0,1-9.15,12.76c-4.4,4.82-7.86,11.25-10.59,18.51-.48-5.71-1.49-23,3.09-32.08l-1.09.17c-5.26,11.32-2.84,32.8-2.72,33.89-7.1,20.22-8.83,46-9.19,60.83h.91A271.61,271.61,0,0,1,111.31,224.77Z"/><path class="cls-4" d="M54.48,249.67c0-1.79,0-25.46-7-39.21-.36,0-.73-.1-1.11-.17,6.19,11.73,7,32,7.17,37.83a116.58,116.58,0,0,0-20.12-23.89A50.42,50.42,0,0,0,33,205.76l-1-.27a49.09,49.09,0,0,1,.63,18,177.39,177.39,0,0,0-18.16-14.44c-.22.2-.45.41-.67.63a171.74,171.74,0,0,1,22.48,18.52,42.68,42.68,0,0,1-27.38,6.3c.11.31.23.62.35.93,1.45.14,2.87.22,4.24.22A43.24,43.24,0,0,0,37,228.86c1.45,1.46,2.89,3,4.29,4.52-1.43,1.91-9.61,11.83-25.69,13.56l.6.84c15.71-1.87,24-11.43,25.71-13.72C49,242,55.25,251.16,59,261.19h1A71.83,71.83,0,0,0,54.48,249.67Z"/><path class="cls-4" d="M84.91,261.19c0-5.58-.12-11.83-.44-18.57h0c.08-.57,7.45-51.37,28.16-75.56-.38,0-.76,0-1.14-.05-17.15,20.58-25.07,59-27.26,71.47A318.69,318.69,0,0,0,79,195.74c.12-.16.27-.39.49-.71,6-8.8,15.56-22.24,24.61-31.76a6.9,6.9,0,0,1-.43-.86c-9.17,9.6-18.89,23.2-24.92,32.09q-1-5.17-2.31-10.36A188.92,188.92,0,0,1,71.21,144c3,0,19.52-.38,33.23-6.43,0-.34.07-.69.1-1-13.66,6.19-30.4,6.54-33.36,6.55-.14-6.48,0-12.68.33-18.46,2.75-.92,20.66-7.08,30.43-14.34-.14-.28-.28-.55-.43-.82-9.21,6.88-26.34,13-29.94,14.18.57-9.4,1.63-17.66,2.69-24.19l-.93.09a245.74,245.74,0,0,0-3,33.27c-12.32-1.58-24.84-9-32.66-14.48-.14.27-.29.54-.42.82,7.94,5.54,20.6,13,33.06,14.58A202.38,202.38,0,0,0,74,177.66c-3.75-1.19-21.14-7-33.31-15.18l.55,1.5c12.85,8.36,30.46,13.93,33,14.7.4,1.89.83,3.79,1.3,5.68a283.47,283.47,0,0,1,6.55,38.56c-2.4-3.35-9.47-11.06-27.24-18.86a7.94,7.94,0,0,1-.17.92c21.36,9.44,27,18.86,27.61,19.94C83.61,238.47,84,251,84,261.19Z"/><path class="cls-8" d="M19.81,260.67c-9.54,0-19.09,3.12-19.74,7.4-1.41,9.42,17.59,15.44,30,16.24s61.73,4.92,120.76,5c62.33.11,62-4.24,87.24-5.92,20.46-1.36,33.37-8.41,31.72-16.08-1.31-6.09-21.92-6.66-21.92-6.66Z"/><path class="cls-9" d="M34.2,265c-8.43,0-20.58,0-21.15,2.22-1.26,5,25,8.94,45.54,6.75,39.8-4.24,144.63-.84,167-1.26,20.8-.38,38.61-2.08,37.15-6.17-1.15-3.24-22.41-3.23-28.71-3.21C183.71,263.52,34.2,265,34.2,265Z"/><path class="cls-10" d="M139.32,34c1.07-3.8.09-8.09-1.78-11.51-2.23-4.09-5.85-3.88-10.26-3.91a8,8,0,0,0-2.2,1c-1.39,1.05-1.78,2.84-2.82,4.18a21.19,21.19,0,0,0-3,4.77c-1.61,3.83-2.27,7.94-4,11.74-1.38,3.09-2.73,6.35-.73,9.49,1.89,3,5.42,4,8.7,4.49,3.54.49,8.54,1.27,12-.09,3.23-1.28,1.25-3.74.22-5.92-1.36-2.89-1.69-5.83.19-8.26C136.68,38.65,138.83,35.74,139.32,34Z"/><path class="cls-11" d="M99.83,264.34c-.78,2.65-3.06,4.3-5.1,3.7s-3-3.23-2.27-5.88,3.07-4.3,5.1-3.7S100.62,261.7,99.83,264.34Z"/><path class="cls-12" d="M65.71,262.69c6.23.71,26.46,1.07,33.15-1,4.52-1.38,10.35-69.71,7.5-76.77s-28.89-5.9-31.83-5.38S65.71,262.69,65.71,262.69Z"/><path class="cls-13" d="M55.34,258.73c-4-27,7.63-67.64,11.51-74.7s14.61-4.67,15.78-.34-6.17,74.44-7.42,76.76C73,264.54,55.94,262.69,55.34,258.73Z"/><path class="cls-11" d="M75,264.34c-.79,2.65-3.07,4.3-5.11,3.7s-3.05-3.23-2.27-5.88,3.07-4.3,5.11-3.7S75.76,261.7,75,264.34Z"/><path class="cls-14" d="M73.32,263.85c-.43,1.46-1.69,2.38-2.81,2s-1.68-1.78-1.25-3.24,1.69-2.37,2.81-2S73.75,262.39,73.32,263.85Z"/><path class="cls-11" d="M99.9,207.32h-.05a.61.61,0,0,1-.56-.66c1.79-19.26,4.32-48.11,4.26-51.63-1.36-.33-6.11-1.1-7.82-.62-1.47,2.34-4.89,32.94-6.72,51.89a.61.61,0,1,1-1.22-.12c0-.13,1.27-13.08,2.75-25.94,3-26.39,4-26.73,4.68-27,2.24-.77,8.42.4,9.13.71.53.23.61.26,0,8.87-.33,4.33-.83,10.36-1.48,17.92-1.11,12.86-2.32,25.85-2.33,26A.6.6,0,0,1,99.9,207.32Z"/><path class="cls-12" d="M80.29,187.79c-.57-4.1-2.89-6.11-7.15-5.4s-5.45,5.09-6.73,8.55a95.94,95.94,0,0,0-4.73,16.94c-1,5.69-1.68,11.31-3.22,16.89a.91.91,0,0,0,1.75.48c2.14-7.69,2.58-15.68,4.71-23.36a117.64,117.64,0,0,1,3.63-11.48c.72-1.83,1.64-4.77,3.5-5.81,1.47-.82,4.78-.68,5.77.8a7.27,7.27,0,0,1,.71,2.87C78.69,189.43,80.45,188.94,80.29,187.79Z"/><path class="cls-12" d="M78.08,194.88a316.32,316.32,0,0,0-5.21,51.46.92.92,0,0,0,1.83,0,311.52,311.52,0,0,1,5.14-51C80.05,194.22,78.3,193.72,78.08,194.88Z"/><path class="cls-15" d="M177.65,268a37.8,37.8,0,0,1-7,0c-2.95-.39-3.78-2.64-4.39-2.89s-.43,2.45-.78,2.64a3.86,3.86,0,0,1-1.41.09s-2.35-5.63-1.36-7.16-.55-5.17-.55-5.17,6.62-.47,6.87-.29,2.25,4.64,3.88,6.26,4.29,3,4.69,3.64S177.65,268,177.65,268Z"/><path class="cls-16" d="M124.09,142.31c-1.69,18.46,15.34,40.48,19.15,51.55s15.94,59.32,16.58,61.88,15.24.08,16.49-2.75-8.84-58.67-10.09-64.77-11.46-51.51-15.33-54.81S124.76,135,124.09,142.31Z"/><path class="cls-15" d="M134.72,268a37.8,37.8,0,0,1-7,0c-2.95-.39-3.78-2.64-4.4-2.89s-.42,2.45-.77,2.64a3.86,3.86,0,0,1-1.41.09s-2.35-5.63-1.36-7.16,1.34-5.17,1.34-5.17,7,.21,7.3.39-.07,4,1.55,5.58,4.3,3,4.7,3.64S134.72,268,134.72,268Z"/><path class="cls-17" d="M113.82,136.59c-7,17.16,2.83,43.2,3.24,54.9s-2.09,61.38-2.23,64,14.55,4.53,16.57,2.19,8.7-58.7,9.28-64.89,4.1-52.61,1.37-56.9S116.59,129.82,113.82,136.59Z"/><path class="cls-18" d="M171.64,137a10.78,10.78,0,0,1,2.05,7.73c-.16,2.15-6,5.1-6.74,4-1-1.44,2.26-3.19-.18-5.91-1.81-2-2.77-5.75-.73-7.08S170.93,136,171.64,137Z"/><path class="cls-15" d="M127.55,55.3c-5.94,7.69,6.77,32.22,11.82,42.78s24.08,39,25.08,40.58,6.46-1.6,6.47-3.3-17.09-35-18.43-40.2S150.05,81.85,147,68.82C144.17,56.39,131.06,50.74,127.55,55.3Z"/><path class="cls-18" d="M129.85,44.38S131,57,131.21,59c.46,3.71-8.92.45-10.2-4-1.05-3.69-1.07-16.55-1.07-16.55Z"/><path class="cls-19" d="M111.28,55.52c2.62-1.47,10.6-4.59,20.91-2.23,11.3,2.59,21.75,22,21,29.18s-3.65,27.36-1.17,39.06,8.19,31.3,8.19,33.64-16.23,9.07-30.86,8.63-18.43-1.61-19.74-3.81.29-36.07.58-46S98.82,62.48,111.28,55.52Z"/><path class="cls-19" d="M128.7,49.87s2.09,6.79,2.13,9.23-.68,4.95,2.18,8.67a49.67,49.67,0,0,1,4,5.85s-.69-6.41-2-8.76-1-13.49-3.33-15.33S128.7,49.87,128.7,49.87Z"/><path class="cls-17" d="M119.94,46.33c1.8-.43,3.37,2.64,6.06,3.68,3.17,1.23,3.93.34,4.36.1s.94.53,1.22,2,1.35,12.7,1.46,14-8.37-6.06-10.45-9-4.3-3.75-4.47-4.5S118.47,46.68,119.94,46.33Z"/><path class="cls-20" d="M115.84,53.69c1.07-.35,1.26-6.52,4.33-5.55s8.06,13.26,13.27,17.92,7.17,16.61,7.26,20.79-3-13.13-9.48-17.42C118,60.62,115.84,53.69,115.84,53.69Z"/><path class="cls-20" d="M141.48,93.68c-.14-1.15-2-1.16-1.82,0,2.52,21.49-5.17,43-.29,64.39.26,1.15,2,.66,1.76-.48C136.29,136.43,144,115,141.48,93.68Z"/><path class="cls-20" d="M135.32,94.09l-.12,0a.64.64,0,0,1-.26-.1c-.11-.09-.08-.18-.05-.44s.05-.47.18-.56.48,0,.62,0c1.15.21,1.64-1.54.49-1.75a2.41,2.41,0,0,0-2.6.68,3.33,3.33,0,0,0-.49,2.46c.48,1.88,4.23,2.21,4-.15C137.05,93.1,135.37,93.05,135.32,94.09Z"/><path class="cls-20" d="M135.27,102.21h0a.64.64,0,0,0-.27-.11,2.08,2.08,0,0,0-2.38,2c-.13,1.23.17,2.56,1.61,2.69a2.18,2.18,0,0,0,2.48-1.58C136.93,104.07,136.59,102.53,135.27,102.21Zm-.73,2.8h-.09c0-.12,0-.27,0-.38a1.28,1.28,0,0,1,.05-.55c0-.11.12-.16.12-.19a1,1,0,0,0,.21.08c.2,0,.15.58.14.74a.83.83,0,0,1,0,.22h0A.75.75,0,0,1,134.54,105Z"/><path class="cls-20" d="M136.08,115.59a.83.83,0,0,0-1,.08.89.89,0,0,0-.69-1.46c-2.61.17-2.69,3.89-.6,4.91a2.34,2.34,0,0,0,2.93-.7A2,2,0,0,0,136.08,115.59Zm-1.57,1.84c-.26-.18-.7-1.35-.1-1.39a1,1,0,0,0,.51-.19.85.85,0,0,0,.24,1.31C135.55,117.38,134.82,117.65,134.51,117.43Z"/><path class="cls-20" d="M133,132a.91.91,0,0,0-1.82,0c0,2,.73,4.35-1.52,4.93-1.8.47-4.27.1-6.11,0-1.13-.06-5.71.13-6.39-.67-.83-1-.13-5.44-.13-6.67a.91.91,0,0,0-1.82,0c0,1.89-.91,6.5.5,8s6,1.1,7.84,1.19c2.17.11,6.42.84,8.39-.44S133,133.82,133,132Z"/><path class="cls-20" d="M124.21,134h-1a.91.91,0,0,0,0,1.82h1a.91.91,0,1,0,0-1.82Z"/><path class="cls-20" d="M154.5,132.89c-.87.52-3.06,2-3.81.82a21.8,21.8,0,0,1-1.59-4c-.43-1.08-2.19-.61-1.76.48l1.47,3.73a2.87,2.87,0,0,0,1.22,1.75c1.77.87,3.91-.32,5.39-1.21A.91.91,0,0,0,154.5,132.89Z"/><path class="cls-18" d="M107.24,148.38a10.8,10.8,0,0,1-2.77,7.5c-1.37,1.67-7.86.7-7.84-.56,0-1.75,3.68-1.32,3.25-4.94-.32-2.7,1-6.3,3.47-6.21S107.19,147.21,107.24,148.38Z"/><path class="cls-20" d="M112.73,54.83C97.23,61.4,96.41,86.5,96.12,98.2s3.8,45.63,3.95,47.54,6.48,1.51,7.26,0,.64-38.94,1.81-44.19,3.73-13,7.09-25.95S118,52.58,112.73,54.83Z"/><path class="cls-21" d="M134.52,27.48c2.43,4.7,4.5,19-2.6,20.66-10.1,2.45-15.23-12.81-15.52-14.23s8.53-8.38,11.64-9.74S133,24.44,134.52,27.48Z"/><path class="cls-22" d="M137.15,38.74c-.5-2.34-2-2.75-3.05-2.54s-7.18,1.39-8.51,3.15A10.34,10.34,0,0,1,122,35.56c-.36-.66-1.38-.07-1,.59a11.55,11.55,0,0,0,4.41,4.47,11.26,11.26,0,0,1-.82,4.2,5.49,5.49,0,0,1-1.26-.63c-.85-.56-2.21-1.61-2.42-2.67-.14-.74-1.27-.43-1.13.31.25,1.27,1.62,2.42,2.62,3.14a6.89,6.89,0,0,0,1.9,1,.34.34,0,0,0,0,.11c.19.49,6.14,4,9.7,1.55C136.46,45.93,137.64,41.07,137.15,38.74Z"/><path class="cls-10" d="M131.49,17.12a15.14,15.14,0,0,0-11.77,1.46,8.72,8.72,0,0,0-3,3.24,18.74,18.74,0,0,0-1,2.51c-.68,1.91-2,2.62-3.11,4.09-2.69,3.39-1.72,8-2,12.09-.15,2.4-.71,5-2.41,6.72-1,1.06-2.52,1.63-2.68,3.38-.62,6.51,12.31,6.77,14.46,2,2.33-5.19-1.4-12.17,2.7-16.69,2.27-2.51,5.71-3.53,7.18-6.47,2.58,0,5.09-.68,5.32-4C135.43,21.93,135,18.34,131.49,17.12Z"/><path class="cls-18" d="M210.58,33.42c-.57,7.76-1.1,16.51-1.19,17.54s11.42,1.34,11.51-.57-.24-14.36.18-17.79S210.77,30.77,210.58,33.42Z"/><path class="cls-23" d="M149.71,29.35c-1.5,0-7.26,1.31-7.82,1.93s-1,5,.72,5.84,4.33.93,4.76,1.64,2,14.37,3,14.67,3,.29,3.59-.62,4.08-19.15,3.58-20.76S150.8,29.36,149.71,29.35Z"/><path class="cls-24" d="M147.33,36.5a20.3,20.3,0,0,1-5.53-.29,1.78,1.78,0,0,0,.81.91c1.74.8,4.33.93,4.76,1.64s2,14.37,3,14.67,3,.29,3.59-.62,4.08-19.15,3.58-20.76-6.75-2.69-7.84-2.7C147.34,29.87,147.81,36.23,147.33,36.5Z"/><path class="cls-25" d="M150.13,30.38c.35-.23,4.87.91,6,1.46s.08,7-.51,7-6.09-.93-6.64-1.45S148.59,31.37,150.13,30.38Z"/><path class="cls-26" d="M156.09,31.84c-1.09-.55-5.61-1.69-6-1.46a2.72,2.72,0,0,0-.89,1.4,26.61,26.61,0,0,1,5.44,1.46c.76.38.49,3.63.06,5.57a4.05,4.05,0,0,0,.84.07C156.17,38.8,157.19,32.39,156.09,31.84Z"/><path class="cls-27" d="M152.35,34c.16-.37.37-.68.61-.65.73.09.72-1,0-1.14s-1.23.55-1.57,1.2l0,0a1.48,1.48,0,0,0-.14-1.37c-.42-.56-1.11-.29-1.56.09s.08,1.1.61.92a1.57,1.57,0,0,1-.12.19.58.58,0,0,0,.21.78c.24.14.08.39,0,.55l-.18.15-.09.05a.6.6,0,0,0-1,.55c.17,1,1.2.71,1.83.25a1.19,1.19,0,0,0,.83.94,1.44,1.44,0,0,0,2-1.15C153.85,34.54,153.07,34.19,152.35,34Zm-.14,1.41c-.22-.07-.21-.1-.19-.32.25,0,.52.13.52.23S152.32,35.46,152.21,35.43Z"/><path class="cls-27" d="M155.8,34.14c.69-.25.39-1.35-.3-1.1A2.53,2.53,0,0,0,154,34.78a4.2,4.2,0,0,0-.21,1.21.57.57,0,0,0,.1,1.13.5.5,0,0,0,.29-.08l.1.1a1.09,1.09,0,0,0,1.67-.62,1.38,1.38,0,0,0-.74-1.71A1.11,1.11,0,0,1,155.8,34.14Z"/><path class="cls-18" d="M161.32,48.43c1.23-2.34,2-5.32.84-7.35s-4.5-3.93-5.18-3.2c-.23.25-.2,2.44-1.26,4-1.4,2-5.91-1.31-6.89-.21-1.21,1.37,4.27,7.64,6.87,8.43S160.71,49.59,161.32,48.43Z"/><path class="cls-13" d="M154,47.55c-.16,4.59,19.6,31,29.12,32.94,9,1.87,43.88-4.66,52.77-12.45s-.58-18.19-5.56-18.53-41.22,14.92-43.27,14.66c-7.64-1-25.88-19.33-28-20.46S154.1,45.47,154,47.55Z"/><path class="cls-18" d="M248.48,253s1.8,8.12,2,8.63-5.27,2.12-5.59,1.72-3.11-8.92-3.11-8.92Z"/><path class="cls-28" d="M251.1,260.73c1.12.88,1.53,3.89,1.52,6.68,0,.79-20,1.1-23.81.18-.85-.55.41-2.95,2.47-3.58s6.56-2.81,7.88-4.24a3.9,3.9,0,0,1,5.18-.32C248.15,262.24,249.32,259.33,251.1,260.73Z"/><path class="cls-12" d="M208.25,138.39c.51,3.69,6.7,44.53,9.47,55.84s18.67,60.75,19.79,63,14.64.19,15.51-1.89S242,199,241,190.35s1.78-46-1.86-58.92S208.25,138.39,208.25,138.39Z"/><path class="cls-18" d="M202.21,254.08s-.67,8.28-.67,8.81-5.66.48-5.85,0-.34-9.43-.34-9.43Z"/><path class="cls-28" d="M202.67,260.73c1.12.88,1.54,3.89,1.53,6.68,0,.79-20,1.1-23.82.18-.85-.55.41-2.95,2.47-3.58s6.56-2.81,7.88-4.24a3.9,3.9,0,0,1,5.18-.32C199.72,262.24,200.89,259.33,202.67,260.73Z"/><path class="cls-13" d="M196,133.81c-4.3,10.1-7.91,43.75-8.48,55.38s2.2,64.4,2.63,66.87,14,4.36,15.4,2.62,5.47-57.2,7-65.73,14.84-43.63,15-57S196,133.81,196,133.81Z"/><path class="cls-21" d="M200.08,21.42S196.52,42.66,205.62,45s10-12.35,10.09-14.11-3.84-6.92-8-8.61A13.33,13.33,0,0,0,200.08,21.42Z"/><path class="cls-10" d="M226.23,24.44a10.35,10.35,0,0,0-1.24-2c-1-1.32-.63-1.76-.65-3.23a2.82,2.82,0,0,0-1-2.35c-1.12-1-2.19-.69-3.53-.67-2.72,0-2.9-1.26-4.87-2.44a7.06,7.06,0,0,0-4-1c-.61,0-1.17.27-1.76.33-1.63.17-3.12-.85-4.7-1.16-3.52-.67-4.38.52-5.29,3.46-.34,1.12-.2.75-1.11,1.5a5.21,5.21,0,0,0-.86.77,3.44,3.44,0,0,0-.6,3.28c1.31,3.58,6.47,4.51,9.64,5.18,1.94.41,3.15.83,3.91,2.78.18.46.11.89.4,1.3a1.63,1.63,0,0,0,1.59.75c2.21,2.65,2,5.62,6,6.2a6.49,6.49,0,0,0,4.22-.63c1.42-.92,1.39-2.39,2-3.83.69-1.61,2.35-2.66,2.59-4.47A7.19,7.19,0,0,0,226.23,24.44Z"/><path class="cls-21" d="M214.12,32.64c-.28,2.32-.94,4.15-2.34,4s-3-2.26-2.74-4.58,2.1-4.17,3.46-3.79S214.39,30.32,214.12,32.64Z"/><path class="cls-22" d="M224.35,31.12c-6.35-.41-11.36,1.62-16.72,4.66A14.56,14.56,0,0,1,207,34,35.62,35.62,0,0,0,211,29c.65-1-1-1.94-1.6-.93a34.13,34.13,0,0,1-3.68,4.54c-1.95-.85-5.63-1.14-6.82-.21-1.71,1.33.55,10.11,4,12.16,2.8,1.66,5.81-4.5,6.14-4.93.15-.2-.19-1.09-.65-2.15,5.16-2.94,9.86-4.91,16-4.52C225.55,33.05,225.54,31.2,224.35,31.12Z"/><path class="cls-12" d="M225.07,50.44s-1.54-6.25-3.2-6.77-9.54,1-11.76,2.27-3.76,4.55-3.76,4.55Z"/><path class="cls-29" d="M195.46,137.32c3.29,2.34,11.28,4.83,25.93,2.35s16.53-3.73,18.45-4.91c7.33-4.49,10.44-77.81-6.72-84.95-15.14-6.29-35.46,1.13-40.29,11.12s-1,25.29.85,44S189,132.71,195.46,137.32Z"/><path class="cls-12" d="M201,124.7a61.16,61.16,0,0,1-1.62-9.51,1,1,0,0,0-.13-.4s0-.09,0-.14c.1-1.19-1.76-1.19-1.86,0-.44,5.16-2,16,4.88,17.95a1,1,0,0,0,1.18-.9C203.56,129.32,201.68,127,201,124.7Z"/><path class="cls-21" d="M164.93,76.35a14.48,14.48,0,0,0,1.4-9.07c-.5-3-2.49-6.09-4.33-4.93-1.52.95-1.55,5.58-4.23,8.65-2.09,2.39-1.58,7.31,1.11,8.27S164.37,77.6,164.93,76.35Z"/><path class="cls-30" d="M159.23,79.61c-1,2.41,8.06,41.12,17.91,39.7S196.57,90.87,198.72,83c2.86-10.36,5.21-31.9-.45-28.37C183.31,64,176.59,96,175.8,96s-10.64-20.74-12.07-20.62C161.09,75.54,159.84,78.11,159.23,79.61Z"/><path class="cls-12" d="M197.25,56.18c-.45,0-2.26.28.86-2.14s6.81-3.58,7.51-3.17-4.88,5.23-5.68,5.58S198,56.25,197.25,56.18Z"/></g></g></svg>