<?xml version="1.0" encoding="UTF-8" standalone="no"?>
<svg
   xmlns:dc="http://purl.org/dc/elements/1.1/"
   xmlns:cc="http://creativecommons.org/ns#"
   xmlns:rdf="http://www.w3.org/1999/02/22-rdf-syntax-ns#"
   xmlns:svg="http://www.w3.org/2000/svg"
   xmlns="http://www.w3.org/2000/svg"
   xmlns:sodipodi="http://sodipodi.sourceforge.net/DTD/sodipodi-0.dtd"
   xmlns:inkscape="http://www.inkscape.org/namespaces/inkscape"
   inkscape:version="1.0 (4035a4fb49, 2020-05-01)"
   sodipodi:docname="checklist.svg"
   xml:space="preserve"
   style="enable-background:new 0 0 512.001 512.001;"
   viewBox="0 0 512.001 512.001"
   y="0px"
   x="0px"
   id="Capa_1"
   version="1.1"><metadata
   id="metadata121"><rdf:RDF><cc:Work
       rdf:about=""><dc:format>image/svg+xml</dc:format><dc:type
         rdf:resource="http://purl.org/dc/dcmitype/StillImage" /></cc:Work></rdf:RDF></metadata><defs
   id="defs119" /><sodipodi:namedview
   inkscape:current-layer="Capa_1"
   inkscape:window-maximized="1"
   inkscape:window-y="41"
   inkscape:window-x="-9"
   inkscape:cy="256.00049"
   inkscape:cx="256.00049"
   inkscape:zoom="1.4013192"
   showgrid="false"
   id="namedview117"
   inkscape:window-height="1001"
   inkscape:window-width="1920"
   inkscape:pageshadow="2"
   inkscape:pageopacity="0"
   guidetolerance="10"
   gridtolerance="10"
   objecttolerance="10"
   borderopacity="1"
   bordercolor="#666666"
   pagecolor="#ffffff" />
<g
   style="fill:#dc3545;fill-opacity:1"
   id="g6">
	<g
   style="fill:#dc3545;fill-opacity:1"
   id="g4">
		<path
   style="fill:#dc3545;fill-opacity:1"
   id="path2"
   d="M400.003,152H256.001c-5.523,0-10,4.477-10,10s4.477,10,10,10h144.002c5.523,0,10-4.477,10-10S405.526,152,400.003,152z" />
	</g>
</g>
<g
   style="fill:#dc3545;fill-opacity:1"
   id="g12">
	<g
   style="fill:#dc3545;fill-opacity:1"
   id="g10">
		<path
   style="fill:#dc3545;fill-opacity:1"
   id="path8"
   d="M365.011,202.931c-1.86-1.86-4.44-2.93-7.07-2.93s-5.21,1.07-7.07,2.93c-1.86,1.86-2.93,4.44-2.93,7.07    s1.07,5.21,2.93,7.07s4.44,2.93,7.07,2.93s5.21-1.07,7.07-2.93c1.86-1.86,2.93-4.44,2.93-7.07S366.871,204.791,365.011,202.931z" />
	</g>
</g>
<g
   style="fill:#dc3545;fill-opacity:1"
   id="g18">
	<g
   style="fill:#dc3545;fill-opacity:1"
   id="g16">
		<path
   style="fill:#dc3545;fill-opacity:1"
   id="path14"
   d="M263.061,45.931c-1.86-1.86-4.44-2.93-7.07-2.93s-5.21,1.07-7.07,2.93c-1.86,1.86-2.93,4.44-2.93,7.07    s1.07,5.21,2.93,7.07c1.86,1.86,4.44,2.93,7.07,2.93s5.21-1.07,7.07-2.93c1.86-1.86,2.93-4.44,2.93-7.07    S264.921,47.791,263.061,45.931z" />
	</g>
</g>
<g
   style="fill:#dc3545;fill-opacity:1"
   id="g24">
	<g
   style="fill:#dc3545;fill-opacity:1"
   id="g22">
		<path
   style="fill:#dc3545;fill-opacity:1"
   id="path20"
   d="M315.878,200h-59.877c-5.523,0-10,4.477-10,10s4.477,10,10,10h59.877c5.523,0,10-4.477,10-10S321.401,200,315.878,200z" />
	</g>
</g>
<g
   style="fill:#dc3545;fill-opacity:1"
   id="g30">
	<g
   style="fill:#dc3545;fill-opacity:1"
   id="g28">
		<path
   style="fill:#dc3545;fill-opacity:1"
   id="path26"
   d="M400.003,260H256.001c-5.523,0-10,4.477-10,10s4.477,10,10,10h144.002c5.523,0,10-4.477,10-10S405.526,260,400.003,260z" />
	</g>
</g>
<g
   style="fill:#dc3545;fill-opacity:1"
   id="g36">
	<g
   style="fill:#dc3545;fill-opacity:1"
   id="g34">
		<path
   style="fill:#dc3545;fill-opacity:1"
   id="path32"
   d="M365.011,310.931c-1.86-1.86-4.44-2.93-7.07-2.93s-5.21,1.07-7.07,2.93c-1.86,1.86-2.93,4.44-2.93,7.07    s1.07,5.21,2.93,7.07s4.44,2.93,7.07,2.93s5.21-1.07,7.07-2.93c1.86-1.86,2.93-4.44,2.93-7.07S366.871,312.791,365.011,310.931z" />
	</g>
</g>
<g
   style="fill:#dc3545;fill-opacity:1"
   id="g42">
	<g
   style="fill:#dc3545;fill-opacity:1"
   id="g40">
		<path
   style="fill:#dc3545;fill-opacity:1"
   id="path38"
   d="M315.878,308h-59.877c-5.523,0-10,4.477-10,10s4.477,10,10,10h59.877c5.523,0,10-4.477,10-10S321.401,308,315.878,308z" />
	</g>
</g>
<g
   style="fill:#dc3545;fill-opacity:1"
   id="g48">
	<g
   style="fill:#dc3545;fill-opacity:1"
   id="g46">
		<path
   style="fill:#dc3545;fill-opacity:1"
   id="path44"
   d="M400.003,368H256.001c-5.523,0-10,4.477-10,10s4.477,10,10,10h144.002c5.523,0,10-4.477,10-10S405.526,368,400.003,368z" />
	</g>
</g>
<g
   style="fill:#dc3545;fill-opacity:1"
   id="g54">
	<g
   style="fill:#dc3545;fill-opacity:1"
   id="g52">
		<path
   style="fill:#dc3545;fill-opacity:1"
   id="path50"
   d="M365.011,418.931c-1.86-1.86-4.44-2.93-7.07-2.93s-5.21,1.07-7.07,2.93c-1.86,1.86-2.93,4.44-2.93,7.07    s1.07,5.21,2.93,7.07s4.44,2.93,7.07,2.93s5.21-1.07,7.07-2.93c1.86-1.86,2.93-4.44,2.93-7.07S366.871,420.791,365.011,418.931z" />
	</g>
</g>
<g
   style="fill:#dc3545;fill-opacity:1"
   id="g60">
	<g
   style="fill:#dc3545;fill-opacity:1"
   id="g58">
		<path
   style="fill:#dc3545;fill-opacity:1"
   id="path56"
   d="M315.878,416h-59.877c-5.523,0-10,4.477-10,10s4.477,10,10,10h59.877c5.523,0,10-4.477,10-10S321.401,416,315.878,416z" />
	</g>
</g>
<g
   style="fill:#dc3545;fill-opacity:1"
   id="g66">
	<g
   style="fill:#dc3545;fill-opacity:1"
   id="g64">
		<path
   style="fill:#dc3545;fill-opacity:1"
   id="path62"
   d="M419.243,39.001h-76.379C331.823,28.48,316.898,22,300.479,22h-8.76C285.022,8.742,271.263,0,256,0    s-29.021,8.742-35.719,22H211.5c-16.419,0-31.343,6.48-42.384,17.001H92.759c-26.885,0-48.758,21.873-48.758,48.758v375.484    c0,26.885,21.873,48.758,48.758,48.758h326.483c26.885,0,48.758-21.873,48.758-48.758V87.759    C468.001,60.874,446.128,39.001,419.243,39.001z M211.501,42h15.586c4.498,0,8.442-3.003,9.639-7.338    C239.111,26.029,247.037,20,256.001,20c8.964,0,16.89,6.029,19.274,14.662c1.197,4.335,5.142,7.338,9.639,7.338h15.565    c21.705,0,39.571,16.75,41.354,38.001H170.147C171.93,58.75,189.797,42,211.501,42z M448.001,463.244    c0,15.857-12.901,28.758-28.758,28.758H92.759c-15.857,0-28.758-12.901-28.758-28.758V87.759    c0-15.857,12.901-28.758,28.758-28.758h62.347c-3.276,7.512-5.105,15.794-5.105,24.5v6.5c0,5.523,4.477,10,10,10H351.98    c5.523,0,10-4.477,10-10v-6.5c0-8.705-1.829-16.988-5.105-24.5h62.368c15.857,0,28.758,12.901,28.758,28.758V463.244z" />
	</g>
</g>
<g
   style="fill:#dc3545;fill-opacity:1"
   id="g72">
	<g
   style="fill:#dc3545;fill-opacity:1"
   id="g70">
		<path
   style="fill:#dc3545;fill-opacity:1"
   id="path68"
   d="M192.41,149.596c-3.905-3.905-10.237-3.905-14.142-0.001l-42.762,42.763l-13.173-13.174    c-3.905-3.904-10.237-3.904-14.143,0c-3.905,3.905-3.905,10.237,0,14.143l20.245,20.245c1.953,1.953,4.512,2.929,7.071,2.929    c2.559,0,5.119-0.976,7.071-2.929l49.833-49.833C196.315,159.834,196.315,153.502,192.41,149.596z" />
	</g>
</g>
<g
   style="fill:#dc3545;fill-opacity:1"
   id="g78">
	<g
   style="fill:#dc3545;fill-opacity:1"
   id="g76">
		<path
   style="fill:#dc3545;fill-opacity:1"
   id="path74"
   d="M168.001,368h-48c-5.523,0-10,4.477-10,10v48c0,5.523,4.477,10,10,10h48c5.523,0,10-4.477,10-10v-48    C178.001,372.477,173.524,368,168.001,368z M158.001,416h-28v-28h28V416z" />
	</g>
</g>
<g
   style="fill:#dc3545;fill-opacity:1"
   id="g84">
	<g
   style="fill:#dc3545;fill-opacity:1"
   id="g82">
		<path
   style="fill:#dc3545;fill-opacity:1"
   id="path80"
   d="M168.001,260h-48c-5.523,0-10,4.477-10,10v48c0,5.523,4.477,10,10,10h48c5.523,0,10-4.477,10-10v-48    C178.001,264.477,173.524,260,168.001,260z M158.001,308h-28v-28h28V308z" />
	</g>
</g>
<g
   style="fill:#dc3545;fill-opacity:1"
   id="g86">
</g>
<g
   style="fill:#dc3545;fill-opacity:1"
   id="g88">
</g>
<g
   style="fill:#dc3545;fill-opacity:1"
   id="g90">
</g>
<g
   style="fill:#dc3545;fill-opacity:1"
   id="g92">
</g>
<g
   style="fill:#dc3545;fill-opacity:1"
   id="g94">
</g>
<g
   style="fill:#dc3545;fill-opacity:1"
   id="g96">
</g>
<g
   style="fill:#dc3545;fill-opacity:1"
   id="g98">
</g>
<g
   style="fill:#dc3545;fill-opacity:1"
   id="g100">
</g>
<g
   style="fill:#dc3545;fill-opacity:1"
   id="g102">
</g>
<g
   style="fill:#dc3545;fill-opacity:1"
   id="g104">
</g>
<g
   style="fill:#dc3545;fill-opacity:1"
   id="g106">
</g>
<g
   style="fill:#dc3545;fill-opacity:1"
   id="g108">
</g>
<g
   style="fill:#dc3545;fill-opacity:1"
   id="g110">
</g>
<g
   style="fill:#dc3545;fill-opacity:1"
   id="g112">
</g>
<g
   style="fill:#dc3545;fill-opacity:1"
   id="g114">
</g>
</svg>
