<?xml version="1.0" encoding="UTF-8" standalone="no"?>
<svg
   xmlns:dc="http://purl.org/dc/elements/1.1/"
   xmlns:cc="http://creativecommons.org/ns#"
   xmlns:rdf="http://www.w3.org/1999/02/22-rdf-syntax-ns#"
   xmlns:svg="http://www.w3.org/2000/svg"
   xmlns="http://www.w3.org/2000/svg"
   xmlns:sodipodi="http://sodipodi.sourceforge.net/DTD/sodipodi-0.dtd"
   xmlns:inkscape="http://www.inkscape.org/namespaces/inkscape"
   inkscape:version="1.0 (4035a4fb49, 2020-05-01)"
   sodipodi:docname="refresh.svg"
   version="1.1"
   width="512"
   viewBox="0 0 512 512"
   height="512"
   enable-background="new 0 0 512 512"
   id="Capa_1">
  <metadata
     id="metadata14">
    <rdf:RDF>
      <cc:Work
         rdf:about="">
        <dc:format>image/svg+xml</dc:format>
        <dc:type
           rdf:resource="http://purl.org/dc/dcmitype/StillImage" />
      </cc:Work>
    </rdf:RDF>
  </metadata>
  <defs
     id="defs12" />
  <sodipodi:namedview
     inkscape:current-layer="Capa_1"
     inkscape:window-maximized="1"
     inkscape:window-y="41"
     inkscape:window-x="-9"
     inkscape:cy="256"
     inkscape:cx="256"
     inkscape:zoom="1.4013219"
     showgrid="false"
     id="namedview10"
     inkscape:window-height="1001"
     inkscape:window-width="1920"
     inkscape:pageshadow="2"
     inkscape:pageopacity="0"
     guidetolerance="10"
     gridtolerance="10"
     objecttolerance="10"
     borderopacity="1"
     bordercolor="#666666"
     pagecolor="#ffffff" />
  <g
     style="fill:#dc3545;fill-opacity:1"
     id="_x31_5_refresh">
    <path
       style="fill:#dc3545;fill-opacity:1"
       id="path2"
       fill="#0182fc"
       d="m504.92 229.383c-5.213-.575-26.628-2.939-29.602-3.268-14.437-116.247-113.603-208.697-236.736-208.697-131.863 0-238.582 106.707-238.582 238.582 0 131.864 106.707 238.582 238.582 238.582 69.282 0 131.939-29.528 175.765-77.25 7.796-8.489 7.234-21.692-1.255-29.488-8.489-7.797-21.692-7.234-29.488 1.255-35.991 39.19-87.576 63.742-145.022 63.742-108.539.001-196.842-88.302-196.842-196.841s88.303-196.842 196.842-196.842c96.727 0 177.381 70.131 193.789 162.216-5.804-.641-.08-.009-30.977-3.42-6.096-.673-10.621 5.523-8.126 11.125l41.987 94.272c2.472 5.55 10.007 6.382 13.631 1.505l61.539-82.844c3.656-4.922.59-11.956-5.505-12.629z" />
    <g
       style="fill:#dc3545;fill-opacity:1"
       id="g6">
      <path
         style="fill:#dc3545;fill-opacity:1"
         id="path4"
         fill="#0172fb"
         d="m504.92 229.383c-5.213-.576-26.628-2.939-29.602-3.268-14.437-116.248-113.604-208.697-236.736-208.697-4.894 0-9.748.165-14.568.454 116.282 6.986 208.242 96.639 222.102 208.243 2.974.328 24.389 2.692 29.602 3.268 6.096.673 9.161 7.707 5.504 12.63l-51.385 69.175 5.417 12.164c2.472 5.55 10.008 6.382 13.631 1.505l61.538-82.844c3.658-4.923.592-11.957-5.503-12.63z" />
    </g>
  </g>
</svg>
