<?xml version="1.0" encoding="UTF-8" standalone="no"?>
<svg
   xmlns:dc="http://purl.org/dc/elements/1.1/"
   xmlns:cc="http://creativecommons.org/ns#"
   xmlns:rdf="http://www.w3.org/1999/02/22-rdf-syntax-ns#"
   xmlns:svg="http://www.w3.org/2000/svg"
   xmlns="http://www.w3.org/2000/svg"
   xmlns:sodipodi="http://sodipodi.sourceforge.net/DTD/sodipodi-0.dtd"
   xmlns:inkscape="http://www.inkscape.org/namespaces/inkscape"
   inkscape:version="1.0 (4035a4fb49, 2020-05-01)"
   sodipodi:docname="right-arrow-of-straight-thin-line.svg"
   xml:space="preserve"
   viewBox="0 0 620.03845 154.52609"
   height="154.52609"
   width="620.03845"
   y="0px"
   x="0px"
   id="Capa_1"
   version="1.1"><metadata
   id="metadata41"><rdf:RDF><cc:Work
       rdf:about=""><dc:format>image/svg+xml</dc:format><dc:type
         rdf:resource="http://purl.org/dc/dcmitype/StillImage" /><dc:title></dc:title></cc:Work></rdf:RDF></metadata><defs
   id="defs39" /><sodipodi:namedview
   inkscape:current-layer="g4"
   inkscape:window-maximized="1"
   inkscape:window-y="41"
   inkscape:window-x="-9"
   inkscape:cy="-145.15259"
   inkscape:cx="554.47431"
   inkscape:zoom="0.52087549"
   fit-margin-bottom="0"
   fit-margin-right="0"
   fit-margin-left="0"
   fit-margin-top="0"
   showborder="false"
   showgrid="false"
   id="namedview37"
   inkscape:window-height="1001"
   inkscape:window-width="1920"
   inkscape:pageshadow="2"
   inkscape:pageopacity="0"
   guidetolerance="10"
   gridtolerance="10"
   objecttolerance="10"
   borderopacity="1"
   bordercolor="#666666"
   pagecolor="#ffffff" />
<g
   transform="translate(133.03844,-166.23691)"
   id="g4">
	<path
   sodipodi:nodetypes="cccccssscccsccsc"
   id="path2"
   d="M 482,234.839 365.5,167.578 c -4.783,-2.761 -10.898,-1.122 -13.66,3.66 -2.762,4.783 -1.122,10.898 3.66,13.66 l 84.213,48.62 h -562.75144 c -5.523,0 -10,4.478 -10,10 0,5.521 4.477,10 10,10 H 439.646 L 355.5,302.101 c -4.783,2.762 -6.422,8.877 -3.66,13.66 1.853,3.208 5.213,5.002 8.669,5.002 1.696,0 3.416,-0.434 4.991,-1.342 L 482,252.159 c 3.094,-1.786 5,-5.088 5,-8.66 0,-3.572 -1.906,-6.874 -5,-8.66 z" />
</g>
<g
   transform="translate(133.03844,-166.23691)"
   id="g6">
</g>
<g
   transform="translate(133.03844,-166.23691)"
   id="g8">
</g>
<g
   transform="translate(133.03844,-166.23691)"
   id="g10">
</g>
<g
   transform="translate(133.03844,-166.23691)"
   id="g12">
</g>
<g
   transform="translate(133.03844,-166.23691)"
   id="g14">
</g>
<g
   transform="translate(133.03844,-166.23691)"
   id="g16">
</g>
<g
   transform="translate(133.03844,-166.23691)"
   id="g18">
</g>
<g
   transform="translate(133.03844,-166.23691)"
   id="g20">
</g>
<g
   transform="translate(133.03844,-166.23691)"
   id="g22">
</g>
<g
   transform="translate(133.03844,-166.23691)"
   id="g24">
</g>
<g
   transform="translate(133.03844,-166.23691)"
   id="g26">
</g>
<g
   transform="translate(133.03844,-166.23691)"
   id="g28">
</g>
<g
   transform="translate(133.03844,-166.23691)"
   id="g30">
</g>
<g
   transform="translate(133.03844,-166.23691)"
   id="g32">
</g>
<g
   transform="translate(133.03844,-166.23691)"
   id="g34">
</g>
</svg>
