<?xml version="1.0" encoding="UTF-8" standalone="no"?>
<svg
   xmlns:dc="http://purl.org/dc/elements/1.1/"
   xmlns:cc="http://creativecommons.org/ns#"
   xmlns:rdf="http://www.w3.org/1999/02/22-rdf-syntax-ns#"
   xmlns:svg="http://www.w3.org/2000/svg"
   xmlns="http://www.w3.org/2000/svg"
   xmlns:sodipodi="http://sodipodi.sourceforge.net/DTD/sodipodi-0.dtd"
   xmlns:inkscape="http://www.inkscape.org/namespaces/inkscape"
   inkscape:version="1.0 (4035a4fb49, 2020-05-01)"
   sodipodi:docname="arrow-left.svg"
   xml:space="preserve"
   style="enable-background:new 0 0 493.353 493.352;"
   viewBox="0 0 493.353 493.352"
   height="493.352px"
   width="493.353px"
   y="0px"
   x="0px"
   id="Capa_1"
   version="1.1"><metadata
   id="metadata41"><rdf:RDF><cc:Work
       rdf:about=""><dc:format>image/svg+xml</dc:format><dc:type
         rdf:resource="http://purl.org/dc/dcmitype/StillImage" /></cc:Work></rdf:RDF></metadata><defs
   id="defs39" /><sodipodi:namedview
   inkscape:current-layer="Capa_1"
   inkscape:window-maximized="0"
   inkscape:window-y="50"
   inkscape:window-x="0"
   inkscape:cy="246.67599"
   inkscape:cx="246.6765"
   inkscape:zoom="0.50515362"
   showgrid="false"
   id="namedview37"
   inkscape:window-height="520"
   inkscape:window-width="826"
   inkscape:pageshadow="2"
   inkscape:pageopacity="0"
   guidetolerance="10"
   gridtolerance="10"
   objecttolerance="10"
   borderopacity="1"
   bordercolor="#666666"
   pagecolor="#ffffff" />
<g
   style="fill:#ffffff"
   id="g4">
	<path
   style="fill:#ffffff"
   id="path2"
   d="m 490.786,212.678 c -1.718,-1.713 -3.901,-2.568 -6.57,-2.568 H 127.907 v -63.953 c 0,-3.809 -1.812,-6.567 -5.424,-8.28 -3.621,-1.521 -6.952,-0.949 -9.995,1.713 L 2.853,240.658 C 0.95,242.564 0,244.848 0,247.511 c 0,2.474 0.95,4.665 2.853,6.567 l 109.636,99.928 c 3.046,2.474 6.377,2.956 9.995,1.427 3.612,-1.52 5.424,-4.278 5.424,-8.278 v -63.953 h 356.315 c 2.663,0 4.854,-0.859 6.564,-2.567 1.711,-1.711 2.566,-3.897 2.566,-6.563 v -54.821 c 0.003,-2.665 -0.856,-4.858 -2.567,-6.573 z" />
</g>
<g
   id="g6">
</g>
<g
   id="g8">
</g>
<g
   id="g10">
</g>
<g
   id="g12">
</g>
<g
   id="g14">
</g>
<g
   id="g16">
</g>
<g
   id="g18">
</g>
<g
   id="g20">
</g>
<g
   id="g22">
</g>
<g
   id="g24">
</g>
<g
   id="g26">
</g>
<g
   id="g28">
</g>
<g
   id="g30">
</g>
<g
   id="g32">
</g>
<g
   id="g34">
</g>
</svg>
