<svg id="Capa_1" enable-background="new 0 0 511.982 511.982" height="512" viewBox="0 0 511.982 511.982" width="512" xmlns="http://www.w3.org/2000/svg"><g><circle cx="281.743" cy="293.878" r="7.5"/><circle cx="239.317" cy="293.878" r="7.5"/><path d="m509.786 2.196c-2.93-2.928-7.678-2.928-10.607 0l-16.294 16.294c-20.547-15.383-49.888-13.749-68.558 4.918-9.916 9.917-15.377 23.101-15.377 37.124 0 11.491 3.672 22.414 10.451 31.441l-10.984 10.984-47.729-47.729c-2.93-2.927-7.678-2.929-10.607 0l-42.427 42.426c-1.406 1.407-2.196 3.314-2.196 5.304s.79 3.896 2.196 5.304l47.729 47.73-10.606 10.606-26.516-26.516c-14.624-14.621-38.412-14.621-53.034.001-14.621 14.621-14.621 38.411 0 53.033l26.516 26.516-10.606 10.606-26.516-26.516c-7.083-7.082-16.5-10.983-26.517-10.983s-19.434 3.901-26.516 10.983c-3.658 3.658-6.514 8.034-8.392 12.822-4.789 1.878-9.165 4.733-12.822 8.391-14.622 14.622-14.622 38.412 0 53.034l26.516 26.516-10.606 10.606-47.73-47.73c-1.406-1.406-3.314-2.196-5.303-2.196s-3.897.79-5.303 2.196l-42.427 42.427c-1.407 1.407-2.197 3.314-2.197 5.304s.79 3.896 2.197 5.304l21.213 21.213c2.929 2.928 7.678 2.928 10.606 0 2.929-2.93 2.929-7.678 0-10.607l-15.91-15.909 31.82-31.82 49.54 49.54c-2.347-.244-4.722-.367-7.114-.367-18.03 0-34.981 7.021-47.729 19.77-2.929 2.93-2.929 7.678 0 10.607l5.303 5.303-10.791 10.791c-19.547-17.047-44.266-26.357-70.39-26.357-6.01 0-11.66 2.341-15.91 6.59-4.25 4.25-6.59 9.9-6.59 15.91 0 12.406 10.093 22.5 22.5 22.5 14.105.001 27.498 4.691 38.438 13.309l-15.903 15.902c-5.785 5.785-9.452 13.115-10.605 21.196l-4.245 29.733c-.691 4.844-2.891 9.238-6.362 12.709-4.25 4.25-9.9 6.591-15.91 6.591s-11.66-2.341-15.91-6.591c-8.772-8.772-8.772-23.046 0-31.819 2.929-2.929 2.929-7.678 0-10.606s-7.678-2.929-10.606.001c-14.621 14.621-14.621 38.411 0 53.032 7.311 7.311 16.914 10.966 26.517 10.966s19.206-3.655 26.517-10.966c5.784-5.784 9.452-13.114 10.605-21.196l4.246-29.734c.691-4.844 2.891-9.238 6.362-12.709l15.903-15.903c8.618 10.94 13.308 24.333 13.309 38.437 0 12.406 10.093 22.5 22.499 22.5 6.012 0 11.662-2.34 15.911-6.59 4.25-4.249 6.59-9.9 6.59-15.91 0-26.123-9.309-50.842-26.356-70.389l10.791-10.791 47.73 47.73c1.464 1.464 3.384 2.196 5.303 2.196s3.839-.732 5.303-2.196l42.427-42.426c1.407-1.407 2.197-3.314 2.197-5.304s-.79-3.896-2.197-5.304l-21.169-21.169c-.014-.015-.029-.03-.044-.045-.044-.044-.089-.088-.133-.133l-26.383-26.383 10.607-10.606 26.516 26.516c7.311 7.311 16.914 10.966 26.517 10.966s19.205-3.655 26.517-10.966c3.657-3.658 6.513-8.034 8.391-12.822 4.789-1.878 9.164-4.733 12.822-8.391 14.621-14.622 14.621-38.412 0-53.034l-26.516-26.516 10.606-10.606 26.516 26.516c7.312 7.311 16.914 10.966 26.517 10.966 9.604 0 19.206-3.655 26.518-10.966 14.621-14.622 14.621-38.412 0-53.034l-26.516-26.516 10.601-10.605 47.729 47.729c1.407 1.406 3.314 2.196 5.304 2.196s3.896-.79 5.304-2.196l42.427-42.427c2.929-2.93 2.929-7.678 0-10.607l-47.729-47.729 10.984-10.984c9.027 6.78 19.951 10.452 31.441 10.452 14.023 0 27.207-5.461 37.124-15.377 18.668-18.669 20.301-48.009 4.918-68.558l16.295-16.295c2.928-2.93 2.928-7.678-.001-10.608zm-365.363 457.715c0 2.004-.78 3.888-2.196 5.304s-3.299 2.196-5.302 2.196c-4.137 0-7.501-3.364-7.501-7.5 0-20.631-8.055-40.048-22.68-54.673-14.625-14.624-34.041-22.679-54.673-22.68-4.136 0-7.5-3.364-7.5-7.5 0-2.004.78-3.887 2.196-5.303 1.417-1.417 3.3-2.197 5.304-2.197 24.626 0 47.807 9.618 65.271 27.083 17.463 17.464 27.082 40.645 27.081 65.27zm68.249-97.219 16.039 16.039-31.82 31.819-52.659-52.66c9.028-6.78 19.955-10.446 31.446-10.446 13.962 0 27.093 5.414 36.994 15.248zm84.981-84.723c8.773 8.772 8.773 23.047 0 31.819-2.79 2.791-6.277 4.804-10.083 5.819-2.594.692-4.62 2.719-5.312 5.313-1.016 3.805-3.027 7.291-5.818 10.081-8.772 8.774-23.047 8.772-31.82 0l-63.64-63.64c-8.773-8.772-8.773-23.047 0-31.819 2.791-2.791 6.277-4.804 10.083-5.819 2.594-.692 4.62-2.719 5.312-5.313 1.016-3.804 3.028-7.29 5.819-10.082 4.25-4.249 9.9-6.59 15.91-6.59s11.66 2.341 15.91 6.591zm-20.883-84.524-10.936-10.936c-8.772-8.773-8.772-23.048 0-31.82 4.249-4.25 9.899-6.591 15.91-6.591 6.01 0 11.66 2.341 15.909 6.591l10.936 10.936c-6.251 3.305-12.639 8.443-18.007 13.812s-10.507 11.757-13.812 18.008zm11.437 11.437c.626-2.707 4.013-9.868 12.983-18.837 8.973-8.974 16.133-12.359 18.837-12.982l18.895 18.895c-.627 2.708-4.015 9.868-12.983 18.836-8.975 8.976-16.134 12.359-18.838 12.982zm62.15-1.489 10.936 10.936c4.25 4.249 6.591 9.899 6.591 15.909 0 6.011-2.341 11.661-6.591 15.91-4.249 4.25-9.899 6.591-15.91 6.591-6.01 0-11.66-2.341-15.909-6.591l-10.945-10.945c6.254-3.305 12.645-8.432 18.017-13.803 5.367-5.368 10.505-11.756 13.811-18.007zm15.861-47.779-52.655-52.656 31.82-31.819 15.91 15.91c9.916 9.917 15.377 23.1 15.377 37.124.001 11.491-3.672 22.414-10.452 31.441zm74.625 10.984-31.82 31.82-32.119-32.12c9.563-11.923 14.768-26.621 14.768-42.126 0-2.397-.133-4.773-.378-7.124zm37.123-79.549c-7.083 7.084-16.5 10.984-26.517 10.984s-19.434-3.9-26.517-10.984c-7.083-7.082-10.983-16.499-10.983-26.516s3.9-19.434 10.984-26.517c7.311-7.312 16.912-10.966 26.516-10.966 9.599 0 19.201 3.654 26.51 10.959 14.627 14.636 14.626 38.422.007 53.04z"/></g></svg>