<?xml version="1.0" encoding="UTF-8" standalone="no"?>
<svg
   xmlns:dc="http://purl.org/dc/elements/1.1/"
   xmlns:cc="http://creativecommons.org/ns#"
   xmlns:rdf="http://www.w3.org/1999/02/22-rdf-syntax-ns#"
   xmlns:svg="http://www.w3.org/2000/svg"
   xmlns="http://www.w3.org/2000/svg"
   xmlns:sodipodi="http://sodipodi.sourceforge.net/DTD/sodipodi-0.dtd"
   xmlns:inkscape="http://www.inkscape.org/namespaces/inkscape"
   inkscape:version="1.0 (4035a4fb49, 2020-05-01)"
   sodipodi:docname="cricket.svg"
   version="1.1"
   width="512"
   viewBox="0 0 512.688 512.688"
   height="512"
   enable-background="new 0 0 512.688 512.688"
   id="Capa_1">
  <metadata
     id="metadata10">
    <rdf:RDF>
      <cc:Work
         rdf:about="">
        <dc:format>image/svg+xml</dc:format>
        <dc:type
           rdf:resource="http://purl.org/dc/dcmitype/StillImage" />
      </cc:Work>
    </rdf:RDF>
  </metadata>
  <defs
     id="defs8" />
  <sodipodi:namedview
     inkscape:current-layer="Capa_1"
     inkscape:window-maximized="1"
     inkscape:window-y="41"
     inkscape:window-x="-9"
     inkscape:cy="256"
     inkscape:cx="256"
     inkscape:zoom="1.4013219"
     showgrid="false"
     id="namedview6"
     inkscape:window-height="1001"
     inkscape:window-width="1920"
     inkscape:pageshadow="2"
     inkscape:pageopacity="0"
     guidetolerance="10"
     gridtolerance="10"
     objecttolerance="10"
     borderopacity="1"
     bordercolor="#666666"
     pagecolor="#ffffff" />
  <g
     style="fill:#175d3c;fill-opacity:1"
     id="XMLID_679_">
    <path
       style="fill:#175d3c;fill-opacity:1"
       d="m512.249 444.21-128.814-128.814 16.526-16.526-42.874-42.873 154.328-154.329-5.072-9.753c-19.885-38.24-49.275-68.27-84.992-86.843l-9.753-5.072-155.254 155.254-155.254-155.254-9.753 5.072c-35.717 18.573-65.108 48.603-84.992 86.843l-5.072 9.753 154.328 154.328-42.874 42.873 16.526 16.526-128.814 128.815 67.692 67.692 128.814-128.814 16.526 16.526 42.874-42.874 42.873 42.874 16.526-16.526 128.814 128.814zm-95.266-407.168c23.091 14.131 42.692 34.324 57.447 59.186l-40.946 40.946-58.317-58.317zm-321.277 0 41.308 41.308-58.317 58.317-40.439-40.439c14.755-24.862 34.357-45.055 57.448-59.186zm4.204 120.838 58.317-58.317 76.904 76.904-58.317 58.317zm254.045-57.81 58.317 58.317-198.801 198.8-58.317-58.317zm-285.824 369.405-25.265-25.265 107.601-107.601 25.265 25.265zm267.743-192.265 21.66 21.66-58.317 58.317-21.66-21.66zm26.348 59.399 107.6 107.601-25.265 25.265-107.6-107.6z"
       id="XMLID_720_" />
    <path
       style="fill:#175d3c;fill-opacity:1"
       d="m255.568 410.242c-28.245 0-51.223 22.979-51.223 51.223s22.979 51.223 51.223 51.223 51.223-22.979 51.223-51.223-22.978-51.223-51.223-51.223zm0 72.446c-11.703 0-21.223-9.521-21.223-21.223s9.521-21.223 21.223-21.223 21.223 9.521 21.223 21.223-9.52 21.223-21.223 21.223z"
       id="XMLID_1424_" />
  </g>
</svg>
